<?xml version="1.0"?>
<svg xmlns="http://www.w3.org/2000/svg" xmlns:xlink="http://www.w3.org/1999/xlink" version="1.1" id="Capa_1" x="0px" y="0px" viewBox="0 0 480.008 480.008" style="enable-background:new 0 0 480.008 480.008;" xml:space="preserve" width="512px" height="512px"><g><g>
	<g>
		<g>
			<path d="M479.164,113.687c-2.83-10.455-12.327-17.708-23.159-17.687v0h-44.688L317.661,2.344c-3.124-3.123-8.188-3.123-11.312,0     l-58.344,58.344l-26.344-26.344c-3.124-3.123-8.188-3.123-11.312,0L148.693,96h-74.68l-8.456-74.624     C64.243,9.192,53.941-0.034,41.685,0H8.005c-4.418,0-8,3.582-8,8s3.582,8,8,8h33.68c4.104-0.024,7.561,3.063,8,7.144l44.8,395.48     c1.313,12.172,11.597,21.393,23.84,21.376h10.4c4.392,26.112,29.12,43.72,55.232,39.328     c20.151-3.389,35.939-19.177,39.328-39.328h49.44c4.418,26.139,29.19,43.747,55.329,39.329     c26.139-4.418,43.747-29.19,39.329-55.329c-4.418-26.139-29.19-43.747-55.329-39.329c-20.143,3.405-35.924,19.186-39.329,39.329     h-49.44c-4.392-26.112-29.12-43.72-55.232-39.328c-20.151,3.389-35.939,19.177-39.328,39.328h-10.4     c-4.104,0.024-7.561-3.063-8-7.144L104.805,368h275.128c10.705-0.036,20.104-7.125,23.08-17.408l59.296-207.536     C475.074,139.601,482.62,126.452,479.164,113.687z M320.005,400c17.673,0,32,14.327,32,32c0,17.673-14.327,32-32,32     c-17.673,0-32-14.327-32-32C288.005,414.327,302.332,400,320.005,400z M176.005,400c17.673,0,32,14.327,32,32     c0,17.673-14.327,32-32,32s-32-14.327-32-32C144.005,414.327,158.332,400,176.005,400z M312.005,19.312L388.693,96H283.317     l-24-24L312.005,19.312z M216.005,51.312L260.693,96h-89.376L216.005,51.312z M387.629,346.192     c-0.98,3.438-4.121,5.809-7.696,5.808H103.005l-23.56-208h365.952L387.629,346.192z M456.005,128h-378.4l-1.8-16h380.2     c4.418,0,8,3.582,8,8S460.424,128,456.005,128z" data-original="#000000" class="active-path" data-old_color="#000000" fill="#A3816A"/>
			<path d="M120.005,336h200c4.418,0,8-3.582,8-8s-3.582-8-8-8h-200c-4.418,0-8,3.582-8,8S115.587,336,120.005,336z" data-original="#000000" class="active-path" data-old_color="#000000" fill="#A3816A"/>
			<path d="M352.005,336h16c4.418,0,8-3.582,8-8s-3.582-8-8-8h-16c-4.418,0-8,3.582-8,8S347.587,336,352.005,336z" data-original="#000000" class="active-path" data-old_color="#000000" fill="#A3816A"/>
		</g>
	</g>
</g></g> </svg>
