<?xml version="1.0"?>
<svg xmlns="http://www.w3.org/2000/svg" viewBox="0 0 64 64" width="512px" height="512px"><g><g id="Thinking"><path d="M57.814,23.982c-.04-.374-.186-1.142-.186-1.142A.987.987,0,0,0,56.66,22H54V3a1,1,0,0,0-1-1H43a1,1,0,0,0-1,1V22H38V9a1.939,1.939,0,0,0-.1-.447l-3-6a1.042,1.042,0,0,0-1.79,0l-3,6A1.939,1.939,0,0,0,30,9V22H23V12h1v7a1,1,0,0,0,2,0V11a1,1,0,0,0-1-1H24V5a3,3,0,0,0-3-3H19a3,3,0,0,0-3,3v6a1,1,0,0,0,1,1V22H11.34a.426.426,0,0,0-.164.025.989.989,0,0,0-.822.8A24.026,24.026,0,0,0,10,26.55a2.738,2.738,0,0,1-.08.638L6.03,42.758A1,1,0,0,0,7,44h5v7a3,3,0,0,0,3,3h7a1,1,0,0,1,1,1v7a1,1,0,0,0,1,1H44a1,1,0,0,0,1-1V52.23a7,7,0,0,1,2.931-5.686A24.084,24.084,0,0,0,57.814,23.982ZM44,4h8V6H49a1,1,0,0,0,0,2h3v2H49a1,1,0,0,0,0,2h3v2H49a1,1,0,0,0,0,2h3v2H49a1,1,0,0,0,0,2h3v2H44ZM33,12.414V22H32V11.414ZM36,22H35V12.414l1-1Zm-4.231,2h4.462a3,3,0,1,1-4.462,0ZM34,5.236,35.783,8.8,34,10.586,32.217,8.8ZM29.422,24a5,5,0,1,0,9.156,0H47v4H43.54a1,1,0,0,0-.952.694,8.225,8.225,0,0,1-.605,1.446,1,1,0,0,0,.17,1.187l2.452,2.453L41.78,36.606l-2.453-2.453a1,1,0,0,0-1.188-.17,8.112,8.112,0,0,1-1.446.605A1,1,0,0,0,36,35.54V39H32V35.54a1,1,0,0,0-.693-.952,8.112,8.112,0,0,1-1.446-.605,1,1,0,0,0-1.188.17L26.22,36.606,23.4,33.78l2.452-2.453a1,1,0,0,0,.17-1.187,8.225,8.225,0,0,1-.605-1.446A1,1,0,0,0,24.46,28H21V24ZM18,5a1,1,0,0,1,1-1h2a1,1,0,0,1,1,1v5H18Zm1,7h2V22H19ZM46.769,44.917A9.006,9.006,0,0,0,43,52.23V61H25V55a3,3,0,0,0-3-3H15a1,1,0,0,1-1-1V43a1,1,0,0,0-1-1H8.28l3.581-14.334a4.617,4.617,0,0,0,.139-1.1A21.616,21.616,0,0,1,12.213,24H19v5a1,1,0,0,0,1,1h3.753c.057.144.114.283.174.418l-2.654,2.655a1,1,0,0,0,0,1.414l4.24,4.24a1,1,0,0,0,1.414,0l2.654-2.654c.136.059.275.117.419.174V40a1,1,0,0,0,1,1h6a1,1,0,0,0,1-1V36.247c.144-.057.283-.115.419-.174l2.654,2.654a1.029,1.029,0,0,0,1.414,0l4.24-4.24a1,1,0,0,0,0-1.414l-2.654-2.655c.06-.135.117-.274.174-.418H48a1,1,0,0,0,1-1V24h6.8c.01.072.023.138.031.211A22.1,22.1,0,0,1,46.769,44.917Z" data-original="#000000" class="active-path" data-old_color="#000000" fill="#A3816A"/><path d="M41,44.669a1,1,0,0,1-.369-1.929c.32-.128.637-.264.948-.408a1,1,0,1,1,.842,1.814q-.517.24-1.052.452A1,1,0,0,1,41,44.669Z" data-original="#000000" class="active-path" data-old_color="#000000" fill="#A3816A"/><path d="M45.664,42a1,1,0,0,1-.615-1.789,17.951,17.951,0,0,0,6.927-13.263,1,1,0,0,1,2,.1,19.96,19.96,0,0,1-7.7,14.737A.993.993,0,0,1,45.664,42Z" data-original="#000000" class="active-path" data-old_color="#000000" fill="#A3816A"/></g></g> </svg>
